<svg xmlns="http://www.w3.org/2000/svg" width="64" height="64" viewBox="0 0 64 64"><rect x="0" y="0" width="64" height="64" rx="0" fill="#23333e" stroke="none" stroke-width="2"/><rect x="2" y="2" width="60" height="60" rx="2" fill="#63563e" stroke="#15212b" stroke-width="2"/><path d="M4 4L59 4" fill="none" stroke="#657077" stroke-width="1" stroke-linecap="round"/><path d="M4 5L4 57" fill="none" stroke="#52646b" stroke-width="1" stroke-linecap="round"/><ellipse cx="8" cy="8" rx="1.3" ry="1.3" fill="#788181" fill-opacity="1" stroke="none" stroke-width="1"/><ellipse cx="56" cy="56" rx="1.3" ry="1.3" fill="#788181" fill-opacity="1" stroke="none" stroke-width="1"/><path d="M-50 60l24-56h9l-24 56z" fill="#ad854d" stroke="none" stroke-width="2" stroke-linejoin="round"/><path d="M-30 60l24-56h9l-24 56z" fill="#ad854d" stroke="none" stroke-width="2" stroke-linejoin="round"/><path d="M-10 60l24-56h9l-24 56z" fill="#ad854d" stroke="none" stroke-width="2" stroke-linejoin="round"/><path d="M10 60l24-56h9l-24 56z" fill="#ad854d" stroke="none" stroke-width="2" stroke-linejoin="round"/><path d="M30 60l24-56h9l-24 56z" fill="#ad854d" stroke="none" stroke-width="2" stroke-linejoin="round"/><path d="M50 60l24-56h9l-24 56z" fill="#ad854d" stroke="none" stroke-width="2" stroke-linejoin="round"/></svg>